HIERARCHY
ROOT SpineBase
{
  OFFSET 0.000000 0.000000 0.000000
  CHANNELS 6 Xposition Yposition Zposition Zrotation Xrotation Yrotation
  JOINT SpineMid
  {
    OFFSET -0.000000 33.779520 0.000000
    CHANNELS 3 Zrotation Xrotation Yrotation
    JOINT SpineShoulder
    {
      OFFSET -0.064736 25.103305 -1.009227
      CHANNELS 3 Zrotation Xrotation Yrotation
      JOINT Neck
      {
        OFFSET -0.012441 8.287297 -0.716004
        CHANNELS 3 Zrotation Xrotation Yrotation
        JOINT Head
        {
          OFFSET -0.076566 10.038656 6.405973
          CHANNELS 3 Zrotation Xrotation Yrotation
          End Site
          {
            OFFSET 0 0 0
          }
        }
      }
      JOINT ShoulderLeft
      {
        OFFSET -15.783010 -5.833840 0.051992
        CHANNELS 3 Zrotation Xrotation Yrotation
        JOINT ElbowLeft
        {
          OFFSET -8.776810 -18.104055 11.605078
          CHANNELS 3 Zrotation Xrotation Yrotation
          JOINT WristLeft
          {
            OFFSET 1.884613 10.546421 34.619595
            CHANNELS 3 Zrotation Xrotation Yrotation
            JOINT HandLeft
            {
              OFFSET 0.711323 -7.438589 4.129874
              CHANNELS 3 Zrotation Xrotation Yrotation
              JOINT HandTipLeft
              {
                OFFSET -1.344318 -3.903598 -1.565783
                CHANNELS 3 Zrotation Xrotation Yrotation
                End Site
                {
                  OFFSET 0 0 0
                }
              }
              JOINT ThumbLeft
              {
                OFFSET -0.259292 -4.666112 -1.944053
                CHANNELS 3 Zrotation Xrotation Yrotation
                End Site
                {
                  OFFSET 0 0 0
                }
              }
            }
          }
        }
      }
      JOINT ShoulderRight
      {
        OFFSET 15.654882 -6.011053 -8.552748
        CHANNELS 3 Zrotation Xrotation Yrotation
        JOINT ElbowRight
        {
          OFFSET 9.569690 -28.601544 -0.978444
          CHANNELS 3 Zrotation Xrotation Yrotation
          JOINT WristRight
          {
            OFFSET 3.651168 -21.593453 0.834375
            CHANNELS 3 Zrotation Xrotation Yrotation
            JOINT HandRight
            {
              OFFSET 0.939386 -3.280480 1.688818
              CHANNELS 3 Zrotation Xrotation Yrotation
              JOINT HandTipRight
              {
                OFFSET 0.551480 -5.644771 0.542569
                CHANNELS 3 Zrotation Xrotation Yrotation
                End Site
                {
                  OFFSET 0 0 0
                }
              }
              JOINT ThumbRight
              {
                OFFSET -4.753859 2.274808 -1.213222
                CHANNELS 3 Zrotation Xrotation Yrotation
                End Site
                {
                  OFFSET 0 0 0
                }
              }
            }
          }
        }
      }
    }
  }
  JOINT HipLeft
  {
    OFFSET -7.634752 1.101793 -1.253043
    CHANNELS 3 Zrotation Xrotation Yrotation
    JOINT KneeLeft
    {
      OFFSET -4.843718 -36.443676 2.512795
      CHANNELS 3 Zrotation Xrotation Yrotation
      JOINT AnkleLeft
      {
        OFFSET -4.680496 -33.368140 2.993511
        CHANNELS 3 Zrotation Xrotation Yrotation
        JOINT FootLeft
        {
          OFFSET -2.265133 -1.769055 -12.494396
          CHANNELS 3 Zrotation Xrotation Yrotation
          End Site
          {
            OFFSET 0 0 0
          }
        }
      }
    }
  }
  JOINT HipRight
  {
    OFFSET 7.584936 2.230634 -5.898483
    CHANNELS 3 Zrotation Xrotation Yrotation
    JOINT KneeRight
    {
      OFFSET -0.621544 -32.865754 -4.664907
      CHANNELS 3 Zrotation Xrotation Yrotation
      JOINT AnkleRight
      {
        OFFSET -1.331149 -35.058825 -7.067551
        CHANNELS 3 Zrotation Xrotation Yrotation
        JOINT FootRight
        {
          OFFSET -2.595506 -1.634001 -12.390748
          CHANNELS 3 Zrotation Xrotation Yrotation
          End Site
          {
            OFFSET 0 0 0
          }
        }
      }
    }
  }
}
MOTION
Frames: 12
Frame Time: 0.033333
0.923231 75.171538 207.421821 -0.000000 0.000000 16.973537 -0.000000 0.000000 -16.973537 -0.000000 0.000000 0.000000 -0.000000 0.000000 0.000000 0.000000 0.000000 0.000000 -0.000000 0.000000 0.000000 -0.000000 0.000000 0.000000 -0.000000 0.000000 0.000000 -0.000000 0.000000 0.000000 0.000000 0.000000 0.000000 0.000000 0.000000 0.000000 -0.000000 0.000000 0.000000 -0.000000 0.000000 0.000000 -0.000000 0.000000 0.000000 -0.000000 0.000000 0.000000 0.000000 0.000000 0.000000 0.000000 0.000000 0.000000 -0.000000 0.000000 -16.973537 -0.000000 0.000000 0.000000 -0.000000 0.000000 0.000000 0.000000 0.000000 0.000000 -0.000000 0.000000 -16.973537 -0.000000 0.000000 0.000000 -0.000000 0.000000 0.000000 0.000000 0.000000 0.000000
0.902727 75.143475 207.453717 -0.103472 -0.094086 17.337724 0.126809 0.058976 -17.337874 -0.000000 0.000000 0.000000 -1.599957 -0.456802 1.013846 0.000000 0.000000 0.000000 2.464909 4.521566 -0.736519 -2.796563 4.808775 -0.014850 -1.835962 -8.151516 -0.855506 8.838486 -10.719962 2.660299 0.000000 0.000000 0.000000 0.000000 0.000000 0.000000 -0.000000 0.000000 0.000000 -0.000000 0.000000 0.000000 -2.221834 -1.026706 -1.459176 0.993071 -0.556263 1.147562 0.000000 0.000000 0.000000 0.000000 0.000000 0.000000 0.126809 0.058976 -17.337874 -0.000000 0.000000 0.000000 -0.000000 0.000000 0.000000 0.000000 0.000000 0.000000 0.126809 0.058976 -17.337874 -0.000000 0.000000 0.000000 -0.000000 0.000000 0.000000 0.000000 0.000000 0.000000
0.877403 75.112932 207.470464 -0.211714 -0.155498 17.620411 0.248852 0.084114 -17.620881 -0.000000 0.000000 0.000000 -2.944327 -0.939696 1.857885 0.000000 0.000000 0.000000 4.547321 8.764299 -1.813249 -5.270843 13.801863 -0.302836 -3.317143 -20.051575 -1.985511 16.588634 -17.403540 5.179060 0.000000 0.000000 0.000000 0.000000 0.000000 0.000000 -0.868035 -0.409604 -0.110750 0.326463 -0.810269 -0.124802 -4.344110 -0.150724 -2.655304 2.734141 -1.269875 2.378536 0.000000 0.000000 0.000000 0.000000 0.000000 0.000000 0.248852 0.084114 -17.620881 -0.000000 0.000000 0.000000 -0.000000 0.000000 0.000000 0.000000 0.000000 0.000000 0.248852 0.084114 -17.620881 -0.000000 0.000000 0.000000 -0.000000 0.000000 0.000000 0.000000 0.000000 0.000000
0.847260 75.079908 207.472063 -0.324753 -0.184227 17.821319 0.365553 0.075994 -17.822084 -0.000000 0.000000 0.000000 -4.036280 -1.436464 2.535718 0.000000 0.000000 0.000000 6.369672 12.835715 -3.194578 -7.458543 27.682887 -0.916653 -4.698158 -36.477775 -3.617501 23.196558 -21.077198 7.103666 0.000000 0.000000 0.000000 0.000000 0.000000 0.000000 -1.265676 -0.468915 -0.119230 0.389644 -1.064117 -0.189216 -7.091446 1.149942 -3.809683 5.162236 -2.883687 3.525273 0.000000 0.000000 0.000000 0.000000 0.000000 0.000000 0.365553 0.075994 -17.822084 -0.000000 0.000000 0.000000 -0.000000 0.000000 0.000000 0.000000 0.000000 0.000000 0.365553 0.075994 -17.822084 -0.000000 0.000000 0.000000 -0.000000 0.000000 0.000000 0.000000 0.000000 0.000000
0.812297 75.044403 207.458513 -0.442616 -0.180248 17.939966 0.476615 0.035145 -17.940808 -0.000000 0.000000 0.000000 -4.881075 -1.937727 3.052491 0.000000 0.000000 0.000000 8.028475 16.825917 -4.876444 -9.202398 44.548198 -1.903535 -6.772790 -55.556545 -6.361435 28.747230 -22.575443 8.236179 0.000000 0.000000 0.000000 0.000000 0.000000 0.000000 -1.639318 -0.432227 -0.095186 0.386597 -1.217567 -0.253784 -10.033919 4.580530 -4.215945 8.141732 -6.530075 4.327580 0.000000 0.000000 0.000000 0.000000 0.000000 0.000000 0.476615 0.035145 -17.940808 -0.000000 0.000000 0.000000 -0.000000 0.000000 0.000000 0.000000 0.000000 0.000000 0.476615 0.035145 -17.940808 -0.000000 0.000000 0.000000 -0.000000 0.000000 0.000000 0.000000 0.000000 0.000000
0.772515 75.006418 207.429815 -0.565334 -0.143524 17.975651 0.582031 -0.037955 -17.976166 -0.848398 -0.030564 -0.073572 -4.633418 -2.412234 3.489948 0.000000 0.000000 0.000000 10.429839 20.851916 -6.807061 -10.165992 59.694132 -3.360819 -12.226201 -72.527484 -12.558000 33.363990 -22.410680 8.518024 0.000000 0.000000 0.000000 0.000000 0.000000 0.000000 -1.140575 -0.271023 0.036379 0.317815 -1.270767 -0.317770 -12.773452 11.448481 -2.863401 11.161578 -13.808906 4.349811 0.000000 0.000000 0.000000 0.000000 0.000000 0.000000 0.582031 -0.037955 -17.976166 -0.000000 0.000000 0.000000 -0.104255 -0.077970 0.839131 0.000000 0.000000 0.000000 0.582031 -0.037955 -17.976166 -0.000000 0.000000 0.000000 -0.091909 -0.076166 0.820956 0.000000 0.000000 0.000000
0.696529 74.952350 207.422188 -0.749170 -0.124198 18.037724 -0.111956 0.209327 -18.073974 -0.182030 -0.003719 -0.058399 -4.591384 -3.142444 3.614537 0.000000 0.000000 0.000000 12.530956 25.670742 -9.687607 -10.445981 74.410645 -5.504578 -83.020966 -86.097101 -84.711123 39.056885 -20.325509 7.966700 0.000000 0.000000 0.000000 0.000000 0.000000 0.000000 -1.202536 -0.117385 0.145318 -0.022291 -1.325362 -0.408153 -14.197679 30.846162 6.361971 10.501892 -35.534503 -0.753944 0.000000 0.000000 0.000000 0.000000 0.000000 0.000000 0.750807 -0.113884 -18.037789 -0.000000 0.000000 0.000000 -0.119345 -0.061118 0.923327 0.000000 0.000000 0.000000 0.750807 -0.113884 -18.037789 -0.000000 0.000000 0.000000 -0.109435 -0.044710 0.902110 0.000000 0.000000 0.000000
0.610993 74.904251 207.399045 -0.918896 -0.061595 18.058825 -0.137928 0.231823 -18.102315 -0.208859 0.039279 -0.069704 -4.334329 -3.766877 3.587525 0.000000 0.000000 0.000000 14.833201 30.054080 -12.647958 -4.605972 80.487376 -13.385732 -145.256015 -82.449081 -147.024681 42.667000 -16.312535 6.146872 0.000000 0.000000 0.000000 0.000000 0.000000 0.000000 -1.271511 0.078364 0.284259 -0.282278 -1.164003 -0.468814 -24.788005 58.014397 29.467007 -8.830214 -65.545708 -23.846861 0.000000 0.000000 0.000000 0.000000 0.000000 0.000000 0.892728 -0.226287 -18.057556 -0.000000 0.000000 0.000000 -0.134773 -0.034337 0.996375 0.000000 0.000000 0.000000 0.892728 -0.226287 -18.057556 -0.000000 0.000000 0.000000 -0.127336 -0.004876 0.971914 0.000000 0.000000 0.000000
0.555635 74.862373 207.308541 -1.055194 0.095860 17.764445 -0.176053 0.218648 -17.813206 -0.221647 0.083695 -0.078271 -4.100360 -4.333611 3.540745 0.000000 0.000000 0.000000 16.563725 33.776004 -15.737581 -0.466390 81.519738 -18.494651 -146.670857 -81.579019 -147.603944 43.555217 -11.681867 3.749724 0.000000 0.000000 0.000000 0.000000 0.000000 0.000000 -1.480585 0.353048 0.471423 -0.333421 -0.873908 -0.524223 -16.851389 54.331776 24.380906 -13.894800 -60.065834 -26.726773 0.000000 0.000000 0.000000 0.000000 0.000000 0.000000 0.975655 -0.413203 -17.760044 -0.000000 0.000000 0.000000 -0.127238 0.023856 0.865608 0.000000 0.000000 0.000000 0.975655 -0.413203 -17.760044 -0.081321 -0.889550 0.049615 -0.042945 0.956814 0.787713 0.000000 0.000000 0.000000
0.554374 74.829771 207.159707 -1.116599 0.328934 17.209485 -0.220452 0.177151 -17.260040 -0.221243 0.122876 -0.082290 -4.007365 -4.707022 3.521842 0.000000 0.000000 0.000000 17.938960 36.773529 -18.606086 1.261292 79.292351 -20.617102 -137.581769 -83.027040 -136.559093 42.797063 -6.383195 0.775706 0.000000 0.000000 0.000000 0.000000 0.000000 0.000000 -1.684101 0.638682 0.666128 -0.469581 -0.371164 -0.541289 -13.203395 46.733347 17.568918 -6.117446 -51.841367 -17.836985 0.000000 0.000000 0.000000 0.000000 0.000000 0.000000 0.969347 -0.644502 -17.200828 -0.000000 0.000000 0.000000 -0.000000 0.000000 0.000000 0.000000 0.000000 0.000000 0.969347 -0.644502 -17.200828 -0.164358 -0.976689 0.068932 0.165557 0.976486 -0.071743 0.000000 0.000000 0.000000
0.621453 74.813911 206.942710 -1.110344 0.631318 16.362001 -0.275938 0.098310 -16.411839 -0.202808 0.148262 -0.081931 -4.006344 -5.005790 3.501067 0.000000 0.000000 0.000000 19.099973 38.810020 -20.735981 -3.254902 78.358826 -16.284452 -143.738627 -83.163209 -141.976484 44.385228 -9.953268 2.340441 0.000000 0.000000 0.000000 0.000000 0.000000 0.000000 -2.175818 0.934622 0.871535 -0.267124 0.162346 -0.551314 -7.558657 36.661697 11.331371 -5.836004 -38.708205 -13.927338 0.000000 0.000000 0.000000 0.000000 0.000000 0.000000 1.073528 -1.826946 -16.205469 -0.432053 0.820529 -0.135753 -0.000000 0.000000 0.000000 0.000000 0.000000 0.000000 0.887651 -0.918433 -16.348769 -0.267172 -1.110856 0.093624 0.269037 1.110406 -0.098821 0.000000 0.000000 0.000000
0.742111 74.806801 206.685077 -1.043629 0.964662 15.247728 -0.338126 -0.000360 -15.295331 -0.186130 0.144775 -0.079616 -4.046923 -5.169370 3.472957 0.000000 0.000000 0.000000 19.458669 39.555325 -21.668519 -7.247680 77.462227 -12.200007 -142.877622 -81.937475 -142.347232 46.689374 -13.053144 5.449793 0.000000 0.000000 0.000000 0.000000 0.000000 0.000000 -2.584791 1.096777 1.012003 -0.627433 1.133786 -0.459580 -3.042690 23.353657 5.620711 -8.718977 -23.213549 -10.359953 0.000000 0.000000 0.000000 0.000000 0.000000 0.000000 0.826186 -2.512049 -15.035115 -0.409421 1.243363 -0.189100 -0.000000 0.000000 0.000000 0.000000 0.000000 0.000000 0.753378 -1.205046 -15.231019 -0.418344 -1.251270 0.127541 0.421228 1.250302 -0.136705 0.000000 0.000000 0.000000
